<svg width="98" height="97" viewBox="0 0 98 97" fill="none" xmlns="http://www.w3.org/2000/svg">
<g id="Star 2">
<g id="Star 2_2" filter="url(#filter0_i_9_12)">
<path d="M39.7255 26.4092C42.7997 17.6555 55.2003 17.6555 58.2745 26.4092V26.4092C59.6238 30.2513 63.2515 32.8602 67.3228 32.9423V32.9423C76.5463 33.1283 80.4655 44.8711 73.0866 50.4083V50.4083C69.8182 52.861 68.4379 57.1029 69.6323 61.0108V61.0108C72.3284 69.8314 62.2173 77.0035 54.6212 71.7717V71.7717C51.2626 69.4584 46.7374 69.4584 43.3788 71.7717V71.7717C35.7827 77.0035 25.6716 69.8314 28.3677 61.0108V61.0108C29.5621 57.1029 28.1818 52.861 24.9134 50.4083V50.4083C17.5345 44.8711 21.4537 33.1283 30.6772 32.9423V32.9423C34.7485 32.8602 38.3762 30.2513 39.7255 26.4092V26.4092Z" fill="url(#paint0_linear_9_12)"/>
</g>
</g>
<defs>
<filter id="filter0_i_9_12" x="21.0572" y="19.844" width="55.8856" height="57.7007" filterUnits="userSpaceOnUse" color-interpolation-filters="sRGB">
<feFlood flood-opacity="0" result="BackgroundImageFix"/>
<feBlend mode="normal" in="SourceGraphic" in2="BackgroundImageFix" result="shape"/>
<feColorMatrix in="SourceAlpha" type="matrix" values="0 0 0 0 0 0 0 0 0 0 0 0 0 0 0 0 0 0 127 0" result="hardAlpha"/>
<feOffset dy="7"/>
<feGaussianBlur stdDeviation="2"/>
<feComposite in2="hardAlpha" operator="arithmetic" k2="-1" k3="1"/>
<feColorMatrix type="matrix" values="0 0 0 0 0 0 0 0 0 0 0 0 0 0 0 0 0 0 0.25 0"/>
<feBlend mode="normal" in2="shape" result="effect1_innerShadow_9_12"/>
</filter>
<linearGradient id="paint0_linear_9_12" x1="24.3731" y1="5.07853" x2="90.9052" y2="96.9899" gradientUnits="userSpaceOnUse">
<stop offset="0.294459" stop-color="#FFA800"/>
<stop offset="0.651042" stop-color="#FFCA7A"/>
<stop offset="1" stop-color="#ECA9DD" stop-opacity="0.479456"/>
</linearGradient>
</defs>
</svg>
