<svg width="56" height="55" viewBox="0 0 56 55" fill="none" xmlns="http://www.w3.org/2000/svg">
<g id="Star 3" filter="url(#filter0_i_9_11)">
<path d="M9.72759 16.4418C14.8343 16.3388 19.387 13.0706 21.0843 8.23756C23.3757 1.71276 32.6243 1.71276 34.9157 8.23756C36.613 13.0706 41.1657 16.3388 46.2724 16.4418C53.2047 16.5816 55.996 25.349 50.5861 29.4087C46.4744 32.4941 44.7397 37.8282 46.2415 42.7415C48.2094 49.1799 40.7872 54.6717 35.0393 50.7128C30.8268 47.8114 25.1732 47.8114 20.9607 50.7128C15.2128 54.6717 7.79057 49.1799 9.75849 42.7415C11.2603 37.8282 9.52555 32.4941 5.41393 29.4087C0.00395584 25.349 2.79528 16.5816 9.72759 16.4418Z" stroke="#FFCA7A" stroke-width="5"/>
</g>
<defs>
<filter id="filter0_i_9_11" x="0.0572205" y="0.843956" width="55.8856" height="57.7007" filterUnits="userSpaceOnUse" color-interpolation-filters="sRGB">
<feFlood flood-opacity="0" result="BackgroundImageFix"/>
<feBlend mode="normal" in="SourceGraphic" in2="BackgroundImageFix" result="shape"/>
<feColorMatrix in="SourceAlpha" type="matrix" values="0 0 0 0 0 0 0 0 0 0 0 0 0 0 0 0 0 0 127 0" result="hardAlpha"/>
<feOffset dy="4"/>
<feGaussianBlur stdDeviation="2"/>
<feComposite in2="hardAlpha" operator="arithmetic" k2="-1" k3="1"/>
<feColorMatrix type="matrix" values="0 0 0 0 0 0 0 0 0 0 0 0 0 0 0 0 0 0 0.25 0"/>
<feBlend mode="normal" in2="shape" result="effect1_innerShadow_9_11"/>
</filter>
</defs>
</svg>
